<?xml version="1.0" encoding="UTF-8"?>
<svg version="1.1" viewBox="0 0 22 16" xmlns="http://www.w3.org/2000/svg" xmlns:cc="http://creativecommons.org/ns#" xmlns:dc="http://purl.org/dc/elements/1.1/" xmlns:rdf="http://www.w3.org/1999/02/22-rdf-syntax-ns#">
 <title>Flag of Norway</title>
 <rect width="22" height="16" fill="#ba0c2f"/>
 <path d="M0,8h22M8,0v16" stroke="#fff" stroke-width="4"/>
 <path d="M0,8h22M8,0v16" stroke="#00205b" stroke-width="2"/>
 <path d="m1.3203 1.8867v12.227h3.1816v-5.916l3.8613 5.916h2.7773v-12.227h-3.168v5.9395l-3.8828-5.9395z" color="#000000" fill-opacity=".65" style="-inkscape-stroke:none;paint-order:stroke fill markers"/>
 <path d="m10.241 2.7864v10.427h-1.3893l-5.2494-8.0423v8.0423h-1.3822v-10.427h1.3822l5.2708 8.0638v-8.0638z" color="#000000" fill="#fff" style="-inkscape-stroke:none;paint-order:stroke fill markers"/>
 <path d="m11.783 1.8867v12.227h4.5527c1.1879 0 2.2542-0.30691 3.0684-0.97656 0.84527-0.69159 1.2754-1.7635 1.2754-2.9316 1e-6 -0.74682-0.2135-1.4679-0.63086-2.0703-0.14819-0.21615-0.43784-0.26924-0.63477-0.43945 0.11851-0.11844 0.29734-0.17317 0.39648-0.30859 0.38525-0.52474 0.58984-1.1677 0.58984-1.8223 0-1.1539-0.41561-2.2104-1.2695-2.8359-0.80279-0.59515-1.8396-0.8418-3.0312-0.8418zm3.1816 2.9316h1.2031c0.52064 0.00964 0.78559 0.12749 0.88672 0.21289 0.10113 0.085397 0.16406 0.16891 0.16406 0.51953 0 0.31779-0.05217 0.40209-0.21289 0.5332-0.17697 0.14437-0.42135 0.24219-0.86328 0.24219h-1.1777zm0 4.418h1.4355c0.55684 0 0.77712 0.12786 0.86523 0.22266l0.0039 0.00391 0.0059 0.00391c0.13918 0.14542 0.22852 0.33629 0.22852 0.75391 0 0.38061-0.08008 0.53988-0.25586 0.70508-0.16453 0.15108-0.41239 0.26367-0.91211 0.26367h-1.3711z" color="#000000" fill-opacity=".65" style="-inkscape-stroke:none;paint-order:stroke fill markers"/>
 <path d="m19.78 10.206q0 1.4609-0.94532 2.2344-0.93815 0.77344-2.4994 0.77344h-3.6524v-10.427h3.416q1.6042 0 2.4994 0.66602 0.90234 0.65886 0.90234 2.1126 0 0.72331-0.41536 1.2891-0.4082 0.5586-1.1244 0.86654 0.88086 0.24349 1.3464 0.92383 0.47266 0.68034 0.47266 1.5612zm-5.7149-6.2878v3.3086h2.0768q0.88802 0 1.4323-0.44401 0.54427-0.44401 0.54427-1.2318 0-1.597-1.9336-1.6328zm4.3399 6.3021q0-0.8737-0.47982-1.375-0.47266-0.50846-1.5254-0.50846h-2.3346v3.7526h2.2702q0.98112 0 1.5254-0.5013 0.54427-0.50846 0.54427-1.3678z" color="#000000" fill="#fff" style="-inkscape-stroke:none;paint-order:stroke fill markers"/>
 <metadata>
  <rdf:RDF>
   <cc:Work rdf:about="">
    <dc:title>Flag of Norway</dc:title>
   </cc:Work>
  </rdf:RDF>
 </metadata>
</svg>
