<svg width="111.83mm" height="50.8mm" version="1.1" viewBox="0 0 111.83 50.8" xmlns="http://www.w3.org/2000/svg">
 <g transform="translate(-10.607 92.68)">
  <path d="m54.602-54.58-21.997 12.7-21.997-12.7v-25.4l21.997-12.7 21.997 12.7z" fill="#fff" stop-color="#000000"/>
  <path d="m54.601-67.282a12.128 12.128 0 0 1-12.128 12.128 12.128 12.128 0 0 1-12.128-12.128 12.128 12.128 0 0 1 12.128-12.128 12.128 12.128 0 0 1 12.128 12.128z" stop-color="#000000"/>
  <path d="m54.601-67.282a3.7764 3.7764 0 0 1-3.7764 3.7764 3.7764 3.7764 0 0 1-3.7764-3.7764 3.7764 3.7764 0 0 1 3.7764-3.7764 3.7764 3.7764 0 0 1 3.7764 3.7764z" fill="#fff" stop-color="#000000"/>
  <path d="m32.605-92.68-21.997 12.7v25.4l21.997 12.7 12.445-7.1851a18.6 18.6 0 0 1-3.7564 0.38344 18.6 18.6 0 0 1-18.6-18.6 18.6 18.6 0 0 1 18.6-18.6 18.6 18.6 0 0 1 3.7471 0.38189z" fill="#bada55" stop-color="#000000"/>
  <path d="m76.29-66.268c-0.5408 3.4192-1.9015 4.588-4.5881 4.588-2.5993-0.06978-4.2391-2.2155-4.2391-5.6696 0-3.4192 1.6922-5.5475 4.4659-5.5475 1.919 0 3.4192 0.90714 4.0473 3.1924h0.157l-0.03488-2.9831c-0.99437-0.52335-2.4947-0.94203-4.3438-0.94203-4.431 0-7.135 2.4249-7.135 6.3326 0 3.9775 2.7912 6.35 7.0827 6.3674 2.6342 0 4.117-1.0467 4.9021-2.3376l-0.17445-3.0005z" fill="#fff" style="white-space:pre"/>
  <path d="m86.931-64.384h-0.17445c-0.45357 1.5352-1.4654 2.4772-2.9308 2.4946h-2.1109v-8.6527c0.01748-0.5408 0.43613-0.94203 0.97693-0.94203h0.19189v-0.17445h-4.8323v0.17445h0.19189c0.52335 0 0.95948 0.40124 0.95948 0.94203v8.269c-0.01748 0.52335-0.43613 0.90714-0.94203 0.90714h-0.20934v0.17445h8.1992z" fill="#fff" style="white-space:pre"/>
  <path d="m92.88-72.129h-0.13956c-0.05236 0.48846-0.69781 1.8492-0.81992 2.1109l-3.5937 7.7456c-0.33146 0.66291-0.8897 0.92459-1.3258 0.92459h-0.13956v0.17445h3.4716v-0.17445h-0.13956c-0.38379 0-0.83736-0.33146-0.59313-0.95948l0.6978-1.6049h3.6809l0.68036 1.5875c0.26168 0.62802-0.19189 0.97692-0.59313 0.97692h-0.13956v0.17445h5.1288v-0.17445h-0.12211c-0.48846 0-1.0467-0.27912-1.3782-0.97692zm-2.2853 7.5188 1.5526-3.6286 1.5526 3.6286z" fill="#fff" style="white-space:pre"/>
  <path d="m104.99-71.658v0.17445h0.13955c0.40124 0 0.85481 0.3489 0.59313 0.99437l-2.4946 5.6696-2.4423-5.6696c-0.24424-0.64547 0.19189-0.99437 0.59313-0.99437h0.13955v-0.17445h-5.1288v0.17445h0.12212c0.47102 0 0.99437 0.26168 1.3258 0.92459l4.6404 9.5948h0.15701c0.0524-0.50591 0.69781-1.8666 0.81992-2.1283l3.5413-7.4839c0.3489-0.64547 0.8897-0.90714 1.3433-0.90714h0.12212v-0.17445z" fill="#fff" style="white-space:pre"/>
  <path d="m113.62-61.191v-0.17445h-0.20934c-0.55825 0-0.99437-0.38379-1.0118-0.90714v-8.2864c0.0175-0.52335 0.45357-0.92459 1.0118-0.92459h0.19189v-0.17445h-4.937v0.17445h0.20934c0.5408 0 0.99437 0.40124 0.99437 0.94203v8.2515c0 0.5408-0.45357 0.92459-0.99437 0.92459h-0.20934v0.17445z" fill="#fff" style="white-space:pre"/>
  <path d="m118.25-68.431c-0.66291-0.40124-1.1863-0.73269-1.1339-1.3956 0.0524-0.78503 0.78503-1.3433 1.9015-1.3433 1.3956 0 2.1806 0.68036 2.1806 1.7445h0.13956l0.24422-2.2853h-0.94203c-0.71525-0.08723-1.6922-0.157-2.2679-0.157-1.7794 0-3.0005 0.97692-3.1401 2.6342-0.13956 1.2037 0.41868 2.1457 1.5352 2.861l2.4946 1.5701c0.88969 0.55824 1.2909 0.95948 1.2909 1.5701 0 0.85481-0.66291 1.5701-2.0236 1.5875-1.8492 0-2.9831-1.3258-2.8784-2.8959h-0.13956c-0.41868 0.66291-0.64547 1.9887-0.3838 2.6516 0.50591 0.5408 1.7096 0.94203 3.2099 0.94203 2.4249 0 3.9949-1.2037 4.0996-3.175 0.0872-1.2386-0.54081-2.076-1.4305-2.6168z" fill="#fff" style="white-space:pre"/>
  <path d="m92.115-52.547h-0.09878c-0.30621 0.75071-0.70132 1.294-1.7484 1.294h-1.4224v-2.9633h1.6792c0.2667 0.0099 0.47413 0.22719 0.47413 0.49389v0.13829h0.09878v-1.5607h-0.09878v0.14817c0 0.2667-0.21731 0.48401-0.48401 0.48401h-1.6693v-3.0522h2.0151c0.31609 0.01975 0.55316 0.27658 0.55316 0.59267v0.16792l0.09878 0.0099v-1.2545c-0.1778 0.07902-0.75072 0.1778-1.1755 0.1778h-2.8843v0.09878h0.12841c0.32597 0 0.59267 0.25682 0.6223 0.57291v5.5316c0 0.33585-0.28645 0.6223-0.63218 0.6223h-0.11853v0.09878h4.0894z" fill="#fff" style="white-space:pre"/>
  <path d="m93.054-56.874v0.0889h0.11854c0.30621 0 0.55316 0.22719 0.56303 0.5334v4.6623c-0.0099 0.29634-0.24694 0.54328-0.55316 0.54328h-0.12841l-0.0099 0.09878h3.2992c1.9459 0 3.1807-1.1261 3.1807-2.9633s-1.2347-2.9633-3.1807-2.9633zm1.3236 0.29633h1.9756c1.5113 0 2.4497 1.0075 2.4497 2.667 0 1.6496-0.93839 2.6571-2.4497 2.6571h-1.9756z" fill="#fff" style="white-space:pre"/>
  <path d="m102.65-50.957v-0.09878h-0.12842c-0.36547 0-0.6618-0.22719-0.67168-0.52352v-4.6821c0.01-0.28646 0.30621-0.52352 0.67168-0.52352h0.12842v-0.09878h-2.2423l0.01 0.09878h0.1284c0.36548 0 0.66181 0.24695 0.6717 0.54328v4.6524c-0.01 0.29634-0.30622 0.5334-0.6717 0.5334h-0.1284l-0.01 0.09878z" fill="#fff" style="white-space:pre"/>
  <path d="m104.43-56.894c-0.39511 0-0.92851-0.07902-1.1063-0.14817v1.1063h0.10866v-0.14817c0-0.27658 0.19756-0.50377 0.49389-0.51365h1.7879v5.0081c0 0.29634-0.25682 0.54328-0.57291 0.54328h-0.11853v0.09878h2.0348v-0.09878h-0.11853c-0.30621 0-0.56304-0.23707-0.57291-0.52352v-5.0278h1.778c0.3062 0.0099 0.49389 0.23707 0.50377 0.51365v0.14817h0.0988v-1.1063c-0.16793 0.06914-0.71121 0.14817-1.1063 0.14817z" fill="#fff" style="white-space:pre"/>
  <path d="m112.42-57.022c-1.8472 0-3.3288 1.2742-3.3288 3.1016 0 1.8373 1.4817 3.1016 3.3288 3.1016 1.8373 0 3.3288-1.2644 3.3288-3.1016 0-1.8274-1.4916-3.1016-3.3288-3.1016zm0 5.9168c-1.452 0-2.5979-1.1359-2.5979-2.8053 0-1.6792 1.1458-2.8152 2.5979-2.8152 1.452 0 2.5979 1.1359 2.5979 2.8152 0 1.6694-1.1458 2.8053-2.5979 2.8053z" fill="#fff" style="white-space:pre"/>
  <path d="m116.64-56.884v0.09878h0.12841c0.3161 0 0.55316 0.22719 0.56304 0.52352v4.692c-0.01 0.28646-0.24694 0.52352-0.56304 0.52352h-0.12841v0.09878h2.0151v-0.09878h-0.13828c-0.3161 0-0.55316-0.24694-0.55316-0.54328v-4.9784c0.0889 0 0.57291-0.01975 1.1261 0.0099 0.8001 0.03951 1.294 0.47413 1.3137 1.215 0.01 0.20743-0.0198 0.42475-0.0593 0.56304-0.28646 0.82974-0.90876 0.82974-1.452 0.84949h-0.57291v0.0889c0.39511 0 0.73096 0.33585 0.99765 0.67169 0.079 0.0889 0.85937 1.215 0.96803 1.3533 0.3161 0.36548 0.75072 0.86925 1.8373 0.86925h0.31609v-0.10866c-0.55316 0-0.82974-0.29633-1.2347-0.74084-0.40499-0.46426-0.85937-1.0866-0.85937-1.0866-0.20743-0.29633-0.54328-0.67169-0.76059-0.77047 0.889-0.0889 1.5311-0.79022 1.5311-1.6298 0-0.99766-0.7606-1.5903-2.0052-1.5903z" fill="#fff" style="white-space:pre"/>
 </g>
</svg>
